<mxfile host="drawio-plugin" modified="2021-05-11T08:05:38.443Z" agent="5.0 (Windows NT 6.2; Win64; x64) AppleWebKit/537.36 (KHTML, like Gecko) Chrome/87.0.4280.141 Safari/537.36" version="13.7.9" etag="ztbzq_-DaixENkhvcqZ8" type="embed"><diagram id="9vFwx_2lyHLM0nxalQIg" name="Page-1"><mxGraphModel dx="1050" dy="388" grid="1" gridSize="10" guides="1" tooltips="1" connect="1" arrows="1" fold="1" page="1" pageScale="1" pageWidth="850" pageHeight="1100" background="#ffffff" math="0" shadow="0"><root><mxCell id="0"/><mxCell id="1" parent="0"/><mxCell id="12" value="AbstractHandler" style="swimlane;fontStyle=3;align=center;verticalAlign=top;childLayout=stackLayout;horizontal=1;startSize=26;horizontalStack=0;resizeParent=1;resizeParentMax=0;resizeLast=0;collapsible=1;marginBottom=0;fontColor=#000000;strokeColor=#0000CC;strokeWidth=2;fillColor=#FFFFFF;" vertex="1" parent="1"><mxGeometry x="280" y="210" width="170" height="112" as="geometry"/></mxCell><mxCell id="16" value="# _next_handler: Handler" style="text;align=left;verticalAlign=top;spacingLeft=4;spacingRight=4;overflow=hidden;rotatable=0;points=[[0,0.5],[1,0.5]];portConstraint=eastwest;fontColor=#000000;strokeColor=#0000CC;strokeWidth=2;fillColor=#FFFFFF;" vertex="1" parent="12"><mxGeometry y="26" width="170" height="26" as="geometry"/></mxCell><mxCell id="13" value="" style="line;strokeWidth=2;align=left;verticalAlign=middle;spacingTop=-1;spacingLeft=3;spacingRight=3;rotatable=0;labelPosition=right;points=[];portConstraint=eastwest;fontColor=#000000;strokeColor=#0000CC;fillColor=#FFFFFF;" vertex="1" parent="12"><mxGeometry y="52" width="170" height="8" as="geometry"/></mxCell><mxCell id="14" value="+ set_next(Handler): Handler" style="text;align=left;verticalAlign=top;spacingLeft=4;spacingRight=4;overflow=hidden;rotatable=0;points=[[0,0.5],[1,0.5]];portConstraint=eastwest;fontColor=#000000;strokeColor=#0000CC;strokeWidth=2;fillColor=#FFFFFF;" vertex="1" parent="12"><mxGeometry y="60" width="170" height="26" as="geometry"/></mxCell><mxCell id="15" value="+ handle(Any): Optional[str]" style="text;align=left;verticalAlign=top;spacingLeft=4;spacingRight=4;overflow=hidden;rotatable=0;points=[[0,0.5],[1,0.5]];portConstraint=eastwest;fontColor=#000000;strokeColor=#0000CC;strokeWidth=2;fillColor=#FFFFFF;" vertex="1" parent="12"><mxGeometry y="86" width="170" height="26" as="geometry"/></mxCell><mxCell id="33" value="return" style="html=1;verticalAlign=bottom;endArrow=open;dashed=1;endSize=8;strokeColor=#000099;strokeWidth=2;entryX=1;entryY=0.5;entryDx=0;entryDy=0;exitX=1;exitY=0.5;exitDx=0;exitDy=0;fontSize=17;fontColor=#000000;labelBackgroundColor=#FFFFFF;" edge="1" parent="12" source="14" target="16"><mxGeometry x="-0.2482" y="30" relative="1" as="geometry"><mxPoint x="320" y="111" as="sourcePoint"/><mxPoint x="240" y="111" as="targetPoint"/><Array as="points"><mxPoint x="220" y="73"/><mxPoint x="220" y="40"/></Array><mxPoint x="60" y="-3" as="offset"/></mxGeometry></mxCell><mxCell id="2" value="Handler" style="swimlane;fontStyle=3;align=center;verticalAlign=top;childLayout=stackLayout;horizontal=1;startSize=26;horizontalStack=0;resizeParent=1;resizeParentMax=0;resizeLast=0;collapsible=1;marginBottom=0;fontColor=#000000;strokeColor=#0000CC;strokeWidth=2;fillColor=#FFFFFF;" vertex="1" parent="1"><mxGeometry x="280" y="10" width="170" height="86" as="geometry"/></mxCell><mxCell id="4" value="" style="line;strokeWidth=2;align=left;verticalAlign=middle;spacingTop=-1;spacingLeft=3;spacingRight=3;rotatable=0;labelPosition=right;points=[];portConstraint=eastwest;fontColor=#000000;strokeColor=#0000CC;fillColor=#FFFFFF;" vertex="1" parent="2"><mxGeometry y="26" width="170" height="8" as="geometry"/></mxCell><mxCell id="5" value="+ set_next(Handler): Handler" style="text;align=left;verticalAlign=top;spacingLeft=4;spacingRight=4;overflow=hidden;rotatable=0;points=[[0,0.5],[1,0.5]];portConstraint=eastwest;fontColor=#000000;strokeColor=#0000CC;strokeWidth=2;fillColor=#FFFFFF;" vertex="1" parent="2"><mxGeometry y="34" width="170" height="26" as="geometry"/></mxCell><mxCell id="11" value="+ handle(Any): Optional[str]" style="text;align=left;verticalAlign=top;spacingLeft=4;spacingRight=4;overflow=hidden;rotatable=0;points=[[0,0.5],[1,0.5]];portConstraint=eastwest;fontColor=#000000;strokeColor=#0000CC;strokeWidth=2;fillColor=#FFFFFF;" vertex="1" parent="2"><mxGeometry y="60" width="170" height="26" as="geometry"/></mxCell><mxCell id="17" value="MonkeyHandler" style="swimlane;fontStyle=1;align=center;verticalAlign=top;childLayout=stackLayout;horizontal=1;startSize=26;horizontalStack=0;resizeParent=1;resizeParentMax=0;resizeLast=0;collapsible=1;marginBottom=0;fontColor=#000000;strokeColor=#0000CC;strokeWidth=2;fillColor=#FFFFFF;" vertex="1" parent="1"><mxGeometry x="100" y="390" width="170" height="86" as="geometry"/></mxCell><mxCell id="18" value="..." style="text;align=left;verticalAlign=top;spacingLeft=4;spacingRight=4;overflow=hidden;rotatable=0;points=[[0,0.5],[1,0.5]];portConstraint=eastwest;fontColor=#000000;strokeColor=#0000CC;strokeWidth=2;fillColor=#FFFFFF;" vertex="1" parent="17"><mxGeometry y="26" width="170" height="26" as="geometry"/></mxCell><mxCell id="19" value="" style="line;strokeWidth=2;align=left;verticalAlign=middle;spacingTop=-1;spacingLeft=3;spacingRight=3;rotatable=0;labelPosition=right;points=[];portConstraint=eastwest;fontColor=#000000;strokeColor=#0000CC;fillColor=#FFFFFF;" vertex="1" parent="17"><mxGeometry y="52" width="170" height="8" as="geometry"/></mxCell><mxCell id="21" value="+ handle(Any): Optional[str]" style="text;align=left;verticalAlign=top;spacingLeft=4;spacingRight=4;overflow=hidden;rotatable=0;points=[[0,0.5],[1,0.5]];portConstraint=eastwest;fontColor=#000000;strokeColor=#0000CC;strokeWidth=2;fillColor=#FFFFFF;" vertex="1" parent="17"><mxGeometry y="60" width="170" height="26" as="geometry"/></mxCell><mxCell id="22" value="SquirrelHandler" style="swimlane;fontStyle=1;align=center;verticalAlign=top;childLayout=stackLayout;horizontal=1;startSize=26;horizontalStack=0;resizeParent=1;resizeParentMax=0;resizeLast=0;collapsible=1;marginBottom=0;fontColor=#000000;strokeColor=#0000CC;strokeWidth=2;fillColor=#FFFFFF;" vertex="1" parent="1"><mxGeometry x="330" y="390" width="170" height="86" as="geometry"/></mxCell><mxCell id="23" value="..." style="text;align=left;verticalAlign=top;spacingLeft=4;spacingRight=4;overflow=hidden;rotatable=0;points=[[0,0.5],[1,0.5]];portConstraint=eastwest;fontColor=#000000;strokeColor=#0000CC;strokeWidth=2;fillColor=#FFFFFF;" vertex="1" parent="22"><mxGeometry y="26" width="170" height="26" as="geometry"/></mxCell><mxCell id="24" value="" style="line;strokeWidth=2;align=left;verticalAlign=middle;spacingTop=-1;spacingLeft=3;spacingRight=3;rotatable=0;labelPosition=right;points=[];portConstraint=eastwest;fontColor=#000000;strokeColor=#0000CC;fillColor=#FFFFFF;" vertex="1" parent="22"><mxGeometry y="52" width="170" height="8" as="geometry"/></mxCell><mxCell id="26" value="+ handle(Any): Optional[str]" style="text;align=left;verticalAlign=top;spacingLeft=4;spacingRight=4;overflow=hidden;rotatable=0;points=[[0,0.5],[1,0.5]];portConstraint=eastwest;fontColor=#000000;strokeColor=#0000CC;strokeWidth=2;fillColor=#FFFFFF;" vertex="1" parent="22"><mxGeometry y="60" width="170" height="26" as="geometry"/></mxCell><mxCell id="27" value="DogHandler" style="swimlane;fontStyle=1;align=center;verticalAlign=top;childLayout=stackLayout;horizontal=1;startSize=26;horizontalStack=0;resizeParent=1;resizeParentMax=0;resizeLast=0;collapsible=1;marginBottom=0;fontColor=#000000;strokeColor=#0000CC;strokeWidth=2;fillColor=#FFFFFF;" vertex="1" parent="1"><mxGeometry x="560" y="390" width="170" height="86" as="geometry"/></mxCell><mxCell id="28" value="..." style="text;align=left;verticalAlign=top;spacingLeft=4;spacingRight=4;overflow=hidden;rotatable=0;points=[[0,0.5],[1,0.5]];portConstraint=eastwest;fontColor=#000000;strokeColor=#0000CC;strokeWidth=2;fillColor=#FFFFFF;" vertex="1" parent="27"><mxGeometry y="26" width="170" height="26" as="geometry"/></mxCell><mxCell id="29" value="" style="line;strokeWidth=2;align=left;verticalAlign=middle;spacingTop=-1;spacingLeft=3;spacingRight=3;rotatable=0;labelPosition=right;points=[];portConstraint=eastwest;fontColor=#000000;strokeColor=#0000CC;fillColor=#FFFFFF;" vertex="1" parent="27"><mxGeometry y="52" width="170" height="8" as="geometry"/></mxCell><mxCell id="31" value="+ handle(Any): Optional[str]" style="text;align=left;verticalAlign=top;spacingLeft=4;spacingRight=4;overflow=hidden;rotatable=0;points=[[0,0.5],[1,0.5]];portConstraint=eastwest;fontColor=#000000;strokeColor=#0000CC;strokeWidth=2;fillColor=#FFFFFF;" vertex="1" parent="27"><mxGeometry y="60" width="170" height="26" as="geometry"/></mxCell><mxCell id="32" value="" style="endArrow=block;dashed=1;endFill=0;endSize=12;html=1;strokeWidth=2;strokeColor=#000099;entryX=0.5;entryY=1;entryDx=0;entryDy=0;exitX=0.5;exitY=0;exitDx=0;exitDy=0;" edge="1" parent="1" source="12" target="2"><mxGeometry width="160" relative="1" as="geometry"><mxPoint x="220" y="160" as="sourcePoint"/><mxPoint x="380" y="160" as="targetPoint"/></mxGeometry></mxCell><mxCell id="34" value="Extends" style="endArrow=block;endSize=16;endFill=0;html=1;labelBackgroundColor=#FFFFFF;strokeColor=#000099;strokeWidth=2;fontSize=17;fontColor=#000000;exitX=0.5;exitY=0;exitDx=0;exitDy=0;entryX=0.5;entryY=1;entryDx=0;entryDy=0;" edge="1" parent="1" source="17" target="12"><mxGeometry width="160" relative="1" as="geometry"><mxPoint x="340" y="320" as="sourcePoint"/><mxPoint x="500" y="320" as="targetPoint"/></mxGeometry></mxCell><mxCell id="40" value="Extends" style="endArrow=block;endSize=16;endFill=0;html=1;labelBackgroundColor=#FFFFFF;strokeColor=#000099;strokeWidth=2;fontSize=17;fontColor=#000000;exitX=0.5;exitY=0;exitDx=0;exitDy=0;entryX=0.75;entryY=1;entryDx=0;entryDy=0;" edge="1" parent="1" source="22" target="12"><mxGeometry width="160" relative="1" as="geometry"><mxPoint x="340" y="330" as="sourcePoint"/><mxPoint x="415" y="340" as="targetPoint"/></mxGeometry></mxCell><mxCell id="41" value="Extends" style="endArrow=block;endSize=16;endFill=0;html=1;labelBackgroundColor=#FFFFFF;strokeColor=#000099;strokeWidth=2;fontSize=17;fontColor=#000000;exitX=0.5;exitY=0;exitDx=0;exitDy=0;entryX=1;entryY=0.5;entryDx=0;entryDy=0;" edge="1" parent="1" source="27" target="15"><mxGeometry width="160" relative="1" as="geometry"><mxPoint x="340" y="330" as="sourcePoint"/><mxPoint x="500" y="330" as="targetPoint"/></mxGeometry></mxCell><mxCell id="42" value="Implements" style="text;html=1;align=center;verticalAlign=middle;resizable=0;points=[];autosize=1;fontSize=17;fontColor=#000000;" vertex="1" parent="1"><mxGeometry x="365" y="140" width="100" height="30" as="geometry"/></mxCell></root></mxGraphModel></diagram></mxfile>